<svg t="1716963989866" class="icon" viewBox="0 0 1024 1024" version="1.1" xmlns="http://www.w3.org/2000/svg" p-id="1460" width="48" height="48"><path d="M488.6 817.24c-88.32 0-171.36-34.4-233.82-96.85-62.45-62.45-96.85-145.49-96.85-233.82s34.4-171.36 96.85-233.82c62.46-62.45 145.49-96.85 233.82-96.85s171.36 34.4 233.82 96.85c62.45 62.45 96.85 145.49 96.85 233.82s-34.4 171.36-96.85 233.82c-62.46 62.45-145.49 96.85-233.82 96.85z m0-616.33c-76.3 0-148.04 29.71-202 83.67-53.96 53.96-83.67 125.69-83.67 202s29.71 148.04 83.67 202c53.96 53.96 125.69 83.67 202 83.67s148.04-29.71 202-83.67c53.96-53.96 83.67-125.69 83.67-202s-29.71-148.04-83.67-202c-53.96-53.96-125.69-83.67-202-83.67z"  p-id="1461"></path><path d="M828.47 848.95c-5.76 0-11.52-2.2-15.91-6.59L698.8 728.6c-8.79-8.79-8.79-23.03 0-31.82s23.03-8.79 31.82 0l113.76 113.76c8.79 8.79 8.79 23.03 0 31.82a22.435 22.435 0 0 1-15.91 6.59z"  p-id="1462"></path></svg>